<svg width="30" height="23" viewBox="0 0 30 23" fill="none" xmlns="http://www.w3.org/2000/svg">
<path d="M28.8878 11.4999C28.8794 15.1492 27.1381 17.8793 24.5002 19.7149C21.8473 21.5609 18.2835 22.5001 14.6924 22.5C11.1013 22.4999 7.53783 21.5604 4.88538 19.7143C2.24805 17.8787 0.507499 15.1488 0.500001 11.5001C0.508458 7.85075 2.24976 5.12069 4.8876 3.28513C7.54055 1.43906 11.1043 0.499877 14.6954 0.5C18.2865 0.500122 21.85 1.43955 24.5024 3.28567C27.1398 5.12125 28.8803 7.85111 28.8878 11.4999Z" fill="url(#paint0_linear_41_5957)" stroke="#C6F432"/>
<path d="M7.40469 4.90781C4.74841 4.90781 2.59607 7.05774 2.59607 9.71107C3.57386 23.8361 25.82 23.82 26.7898 9.71107C26.7898 7.05774 24.6374 4.90781 21.9812 4.90781H7.40469Z" fill="black"/>
<path d="M21.4049 13.5096H7.98292C6.07553 13.5096 4.52954 11.9653 4.52954 10.06C4.52954 8.15477 6.07553 6.6105 7.98292 6.6105H21.4049C23.3123 6.6105 24.8583 8.15477 24.8583 10.06C24.8583 11.9653 23.3123 13.5096 21.4049 13.5096Z" fill="#C6F432"/>
<path d="M15.8072 16.7665C14.7632 16.6843 12.2916 17.2358 12.3278 15.5151C12.3278 15.2684 12.5265 15.0699 12.7735 15.0699H16.6144C16.8613 15.0699 17.0601 15.2684 17.0601 15.5151C17.0601 16.207 16.4999 16.7665 15.8072 16.7665Z" fill="#C6F432"/>
<path d="M10.9765 11.2974H8.48286C7.70786 11.3115 7.88454 10.2907 7.87249 9.7973C7.87249 9.46037 8.14555 9.18761 8.48286 9.18761H10.9765C11.7515 9.17357 11.5748 10.1944 11.5869 10.6878C11.5869 11.0247 11.3138 11.2974 10.9765 11.2974Z" fill="#010101"/>
<path d="M20.9029 11.2974H18.4113C17.6363 11.3115 17.813 10.2907 17.8009 9.7973C17.8009 9.46037 18.074 9.18761 18.4113 9.18761H20.9029C21.6779 9.17357 21.5013 10.1944 21.5133 10.6878C21.5133 11.0247 21.2402 11.2974 20.9029 11.2974Z" fill="#010101"/>
<defs>
<linearGradient id="paint0_linear_41_5957" x1="14.6939" y1="0" x2="14.6939" y2="23" gradientUnits="userSpaceOnUse">
<stop stop-color="#C6F432"/>
<stop offset="1" stop-color="#C6F432" stop-opacity="0"/>
</linearGradient>
</defs>
</svg>
