<svg width="178" height="268" viewBox="0 0 178 268" fill="none" xmlns="http://www.w3.org/2000/svg">
<path d="M61.3495 75.6068H69.9903L75.6068 78.199L86.4077 84.2476L92.8883 88.1359L101.961 93.3204L112.33 99.3689L123.131 105.417L133.5 111.466L144.733 117.947L153.806 123.995L160.286 129.612L165.471 135.66L169.791 142.141L173.248 149.053L176.272 158.126L177.568 163.743L178 167.199V183.184L176.704 190.529L174.976 197.01L171.519 204.786L167.631 211.699L163.311 217.316L158.558 222.5L153.806 226.388L149.053 229.845L141.277 234.165L134.796 236.757L126.587 238.917L117.515 240.214H108.01L99.3689 238.917L92.8883 237.189L86.4077 234.597L79.4951 231.141L69.1262 225.092L57.0291 218.18L48.8204 213.427L38.4514 207.379L26.3543 200.466L15.9854 194.417L7.34464 189.665L7.77667 188.369L14.6893 184.481L25.0582 178.432L34.5631 172.816L41.0437 169.359L42.7718 169.791L47.9563 172.384L89 196.146L99.3689 202.194L106.282 204.786L115.354 205.651L121.835 204.354L128.748 201.33L133.5 197.874L136.524 194.85L140.413 188.801L142.141 184.481L143.005 181.024V168.927L141.277 163.743L138.252 158.126L134.796 153.806L130.476 150.35L122.699 145.597L112.33 139.549L102.393 133.932L92.0242 127.884L79.9272 120.971L69.5582 114.922L57.4611 108.01L53.5728 104.985L50.5485 101.529L48.3883 96.3447V88.568L50.1165 84.2476L52.7087 80.7913L56.165 77.767L59.6213 76.0389L61.3495 75.6068Z" fill="#C6F432"/>
<path d="M58.3252 27.6505H73.0146L83.8155 29.8107L92.8884 33.267L101.961 38.0194L109.306 42.3398L128.748 53.5728L130.044 54.869L130.476 74.7427V94.1845L127.884 93.3204L117.083 87.2719L109.738 82.9515L97.6408 76.0389L86.4078 69.5583L79.4952 65.6699L74.7427 63.5097L69.5583 62.2136H61.7816L55.301 63.9418L48.3884 67.3981L43.2039 71.7185L39.7476 76.4709L37.1553 82.0874L35.4272 89.4321V96.7767L37.1553 102.825L40.6117 109.738L45.3641 114.922L49.2524 117.947L59.6214 123.995L70.8544 130.476L78.199 134.796L90.2961 141.709L112.762 154.67L123.563 161.151L126.155 163.311L129.18 167.631L130.044 170.655L130.476 177.568L129.18 182.752L126.155 187.073L123.131 189.665L118.811 191.825L114.922 192.689H111.466L105.417 190.961L89 181.456L78.6311 175.408L67.3981 168.927L55.301 162.015L43.6359 155.102L35.8592 150.782L28.9466 146.461L23.7621 142.573L19.4417 138.684L15.5534 134.796L11.233 129.18L7.34466 122.699L5.18447 117.947L2.16019 108.874L0.432039 99.801L0 95.4806V90.2961L0.864078 83.3835L2.59223 75.1748L4.75243 68.2622L7.34466 62.6457L10.3689 57.4612L14.6893 51.4126L20.7379 44.9321L26.3544 40.1796L32.835 35.8593L41.0437 31.9709L48.8204 29.3787L58.3252 27.6505Z" fill="#C6F432"/>
<path d="M0.432039 200.898L3.02427 201.762L24.1942 213.859L35.4272 220.34L45.7961 226.388L57.0291 232.869L67.3981 238.917L76.4709 244.102L84.6796 247.99L92.4563 250.583L102.393 252.743L106.282 253.175L107.146 254.039L103.689 256.199L96.3447 260.087L89.432 263.544L79.0631 266.568L69.1262 267.864H60.9175L52.7087 267L48.3884 265.704L42.7718 263.976L35.4272 260.951L24.1942 254.471L4.75243 243.238L0.432039 240.646L0 238.053L0.432039 200.898Z" fill="#C6F432"/>
<path d="M106.282 0H119.243L130.044 1.72816L137.82 4.32039L147.325 9.07282L154.67 13.3932L165.471 19.4417L170.655 22.8981V24.1942L160.286 30.2427L148.189 37.1553L140.845 41.4757L137.82 43.2039L135.66 42.7718L125.291 36.7233L114.49 30.6748L106.282 25.9223L101.961 23.3301L95.0485 20.3058L86.8398 17.2816L79.9272 15.5534L72.1505 14.6893L73.0146 12.9612L81.6553 7.7767L89.8641 3.88835L98.5048 1.29612L106.282 0Z" fill="#C6F432"/>
<path d="M177.136 35.4271L178 35.8592V74.7427L175.84 76.4708L153.374 89.432L146.461 93.3203L144.733 94.6164H143.869L143.437 92.0242V55.7329L145.597 53.5728L154.238 48.8203L163.743 43.2038L173.68 37.5873L177.136 35.4271Z" fill="#C6F432"/>
<path d="M61.3495 75.6068H69.9903L75.6068 78.199L86.4077 84.2476L92.8883 88.1359L101.961 93.3204L112.33 99.3689L123.131 105.417L133.5 111.466L144.733 117.947L153.806 123.995L160.286 129.612L165.471 135.66L169.791 142.141L173.248 149.053L176.272 158.126L177.568 163.743L178 167.199V183.184L176.704 190.529L174.976 197.01L171.519 204.786L167.631 211.699L163.311 217.316L158.558 222.5L153.806 226.388L149.053 229.845L141.277 234.165L134.796 236.757L126.587 238.917L117.515 240.214H108.01L99.3689 238.917L92.8883 237.189L86.4077 234.597L79.4951 231.141L69.1262 225.092L57.0291 218.18L48.8204 213.427L38.4514 207.379L26.3543 200.466L15.9854 194.417L7.34464 189.665L7.77667 188.369L14.6893 184.481L25.0582 178.432L34.5631 172.816L41.0437 169.359L42.7718 169.791L47.9563 172.384L89 196.146L99.3689 202.194L106.282 204.786L115.354 205.651L121.835 204.354L128.748 201.33L133.5 197.874L136.524 194.85L140.413 188.801L142.141 184.481L143.005 181.024V168.927L141.277 163.743L138.252 158.126L134.796 153.806L130.476 150.35L122.699 145.597L112.33 139.549L102.393 133.932L92.0242 127.884L79.9272 120.971L69.5582 114.922L57.4611 108.01L53.5728 104.985L50.5485 101.529L48.3883 96.3447V88.568L50.1165 84.2476L52.7087 80.7913L56.165 77.767L59.6213 76.0389L61.3495 75.6068ZM65.2378 76.9029L60.0534 77.767L55.733 79.9272L53.1407 82.9515L52.2767 84.2476V85.5437L50.9806 85.9757L50.1165 88.568V96.7767L51.4126 99.3689L53.1407 101.961L53.5728 103.689L57.8932 107.146L62.2136 109.306L66.534 112.33L71.7184 114.49L73.4466 116.218L78.199 118.811L80.3592 120.107L84.2475 122.267H85.1116V123.131L88.5679 124.859L101.097 132.204L103.257 133.5L110.17 137.388L112.762 139.117L115.786 140.413L118.379 142.141L121.403 143.437L124.859 145.597L127.019 146.893L131.772 149.917L137.388 154.67L141.709 160.718L143.437 164.175L144.301 168.495L144.733 168.927V180.592L143.437 185.777L140.413 191.393L137.82 195.282L135.228 198.306L130.908 201.762L124.859 204.786L119.243 206.515L117.515 206.947H109.306L104.121 205.651L99.3689 203.922L98.0728 203.49V202.626L92.8883 200.034L91.5922 198.738L87.7039 196.578L82.9514 193.985L77.3349 190.529L73.0145 187.937L63.0776 182.752L59.6213 180.592L53.5728 177.136L46.6602 173.248L44.0679 171.519L41.0437 171.087L34.131 174.544L29.3786 177.568L24.6262 180.16L21.1699 182.32L15.1213 185.345L10.8009 187.937V189.665L14.2573 192.257L18.1456 194.417L28.9466 200.898L31.1068 201.762L35.4272 204.354L40.1796 206.947L44.0679 209.539L49.6844 212.995L54.4369 215.587L61.3495 219.476L64.3738 221.204L74.7427 227.252L77.3349 228.981L81.6553 231.141L85.5437 233.301L92.8883 235.893L95.0485 236.757L101.097 237.621L104.985 238.053L111.034 238.485H115.786L119.243 238.053H123.563L127.883 237.189L133.068 236.325L139.116 234.165L142.573 232.437L146.461 229.845L151.646 226.82L155.534 223.364L160.718 218.18V217.316L162.447 216.451L165.471 212.563L168.927 206.515L172.383 199.602L174.544 193.553L176.704 184.913V169.359L176.272 163.311L174.976 159.422L173.248 153.806L170.223 146.029L167.631 142.141L165.039 137.388L158.99 130.044L156.398 127.884H155.534V127.019L151.214 123.563L148.621 121.835H147.757V120.971L143.005 118.379L138.684 115.786L137.82 114.922H136.524V114.058L129.612 110.602L125.723 108.442L120.971 105.85L115.786 102.825L110.17 99.3689L105.849 96.7767L98.5048 92.8884L94.6165 90.2961L89.432 87.7039L83.8155 84.2476L79.9272 81.6554L73.0145 78.199L70.8543 77.335H67.398L65.2378 76.9029Z" fill="#C6F432"/>
<path d="M58.3252 27.6505H73.0146L83.8155 29.8107L92.8884 33.267L101.961 38.0194L109.306 42.3398L128.748 53.5728L130.044 54.869L130.476 74.7427V94.1845L127.884 93.3204L117.083 87.2719L109.738 82.9515L97.6408 76.0389L86.4078 69.5583L79.4952 65.6699L74.7427 63.5097L69.5583 62.2136H61.7816L55.301 63.9418L48.3884 67.3981L43.2039 71.7185L39.7476 76.4709L37.1553 82.0874L35.4272 89.4321V96.7767L37.1553 102.825L40.6117 109.738L45.3641 114.922L49.2524 117.947L59.6214 123.995L70.8544 130.476L78.199 134.796L90.2961 141.709L112.762 154.67L123.563 161.151L126.155 163.311L129.18 167.631L130.044 170.655L130.476 177.568L129.18 182.752L126.155 187.073L123.131 189.665L118.811 191.825L114.922 192.689H111.466L105.417 190.961L89 181.456L78.6311 175.408L67.3981 168.927L55.301 162.015L43.6359 155.102L35.8592 150.782L28.9466 146.461L23.7621 142.573L19.4417 138.684L15.5534 134.796L11.233 129.18L7.34466 122.699L5.18447 117.947L2.16019 108.874L0.432039 99.801L0 95.4806V90.2961L0.864078 83.3835L2.59223 75.1748L4.75243 68.2622L7.34466 62.6457L10.3689 57.4612L14.6893 51.4126L20.7379 44.9321L26.3544 40.1796L32.835 35.8593L41.0437 31.9709L48.8204 29.3787L58.3252 27.6505ZM63.5097 28.9466L55.301 29.8107L51.4126 30.2427L44.068 32.4029L41.4757 33.267L37.1553 35.4272L30.6748 38.8835L28.5146 40.1796V41.0437L26.3544 41.9078L22.034 46.2282L20.7379 47.0923V48.3884L19.0097 49.2525L16.8495 51.8447L14.6893 54.0049L11.233 58.7573L6.04854 69.1262L4.32039 73.8787L1.72816 86.8398V98.0728L4.32039 110.17L6.48058 116.651L8.64078 120.971L9.07282 122.699H9.93689L10.801 125.291L12.9612 128.748L15.1214 131.772L15.5534 133.068L17.7136 135.228L20.7379 138.684L24.1942 141.709L29.8107 146.029L38.0194 150.782L41.4757 152.942L44.068 154.238L49.2524 157.262L53.5728 159.854L57.4612 162.015L61.7816 164.607H63.0777V165.471L68.2621 168.495L72.5825 170.655L78.6311 174.544L84.6796 177.568L88.568 180.16L96.3447 184.481L104.553 188.801L108.874 190.529L112.33 190.961H116.218L120.539 189.665L124.427 187.073L127.019 183.617L128.316 181.024L128.748 175.408L127.884 168.927L126.587 166.335L123.563 162.447L118.811 159.422L115.354 157.262L112.33 155.966L108.01 152.942L101.961 149.918L96.7767 146.893L90.2961 143.437L88.1359 141.709L83.3835 139.117L78.6311 136.092L75.6068 134.364L70.4223 131.34L65.6699 128.748L61.3495 126.155L56.5971 123.563L50.5485 120.107L45.7961 116.651H44.932V115.786H44.068V114.922L42.3398 114.058L41.0437 112.762L40.6117 111.466L38.4515 109.306L35.8592 103.689L34.5631 99.801L34.1311 97.2088V88.568L36.2913 80.3593L38.0194 76.9029L42.7718 70.8544L47.9563 66.102L54.8689 62.6457L61.3495 60.9175H69.5583L76.4709 62.6457L83.3835 66.102L85.1117 67.8301L88.1359 69.1262L92.0243 71.2864L93.7524 73.0146L97.6408 74.7427L102.393 77.767L104.553 78.6311L105.85 79.0631V79.9272L112.762 83.3835L117.515 85.9758L120.971 88.136L124.859 90.2961L127.019 91.5923L128.316 91.1602L128.748 90.2961V56.1651L127.019 53.5728L123.563 51.8447H122.267V50.9806L113.194 45.7961H112.33V44.9321L108.874 43.2039L107.146 41.9078L101.529 39.3156L96.7767 36.7233L93.3204 34.9952L85.1117 31.5389L80.3592 30.2427H76.4709L75.1748 30.6748V29.8107L65.2379 28.9466H63.5097Z" fill="#C6F432"/>
<path d="M0.432039 200.898L3.02427 201.762L24.1942 213.859L35.4272 220.34L45.7961 226.388L57.0291 232.869L67.3981 238.917L76.4709 244.102L84.6796 247.99L92.4563 250.583L102.393 252.743L106.282 253.175L107.146 254.039L103.689 256.199L96.3447 260.087L89.432 263.544L79.0631 266.568L69.1262 267.864H60.9175L52.7087 267L48.3884 265.704L42.7718 263.976L35.4272 260.951L24.1942 254.471L4.75243 243.238L0.432039 240.646L0 238.053L0.432039 200.898ZM2.59223 203.922L1.72816 206.515V238.917L3.88835 241.51L8.20874 244.102L14.2573 247.558L19.8738 250.583L22.466 251.447V252.311L27.2184 254.903L29.3786 256.199L36.2913 260.087L40.6117 261.816L41.9078 262.68L44.932 263.544L46.2282 264.408L56.165 265.704V266.136L77.335 265.704L79.9272 264.84L85.1117 263.976L90.2961 261.816L94.1845 259.655H95.0485V258.791L97.2087 258.359L99.801 256.631V254.903L98.0728 253.175L87.2718 250.15L80.7913 247.558L75.6068 244.966L74.3107 243.67L71.7184 242.374L63.5097 238.053L62.2136 237.621V236.757L58.7573 235.029L54.4369 232.437L49.2524 229.845L44.932 226.82L42.3398 225.524L38.4515 222.932L34.1311 220.772L29.3786 218.18L22.034 213.859L17.2816 211.267L11.233 207.811L7.34466 205.65L2.59223 203.922Z" fill="#C6F432"/>
<path d="M106.282 0H119.243L130.044 1.72816L137.82 4.32039L147.325 9.07282L154.67 13.3932L165.471 19.4417L170.655 22.8981V24.1942L160.286 30.2427L148.189 37.1553L140.845 41.4757L137.82 43.2039L135.66 42.7718L125.291 36.7233L114.49 30.6748L106.282 25.9223L101.961 23.3301L95.0485 20.3058L86.8398 17.2816L79.9272 15.5534L72.1505 14.6893L73.0146 12.9612L81.6553 7.7767L89.8641 3.88835L98.5048 1.29612L106.282 0ZM107.146 1.29612L98.9369 2.59223L92.4563 4.32039L85.1116 6.91262L79.9272 10.3689L77.767 12.5291L78.199 14.2573L82.5194 15.1214L89.432 16.8495L92.8883 18.1456L95.9126 19.4417L98.0728 20.3058L102.393 22.466H104.121L104.553 23.7621L109.738 26.7864L114.922 29.3786L119.675 32.4029L125.291 35.4272L126.587 35.8592V36.7233L131.772 38.8835L135.228 41.0437H139.116L145.165 38.0194L148.189 36.2913L165.039 25.9223L167.199 24.6262L168.063 23.7621V22.034L163.311 19.4417L156.398 15.5534L146.893 9.93689L143.869 8.20874L139.549 6.04854L133.5 3.88835L128.316 2.59223L117.515 1.29612H107.146Z" fill="#C6F432"/>
<path d="M177.136 35.4271L178 35.8592V74.7427L175.84 76.4708L153.374 89.432L146.461 93.3203L144.733 94.6164H143.869L143.437 92.0242V55.7329L145.597 53.5728L154.238 48.8203L163.743 43.2038L173.68 37.5873L177.136 35.4271ZM174.976 37.5873L169.791 41.0436L168.495 42.3397L161.583 45.7961L159.422 47.0922V47.9563L157.694 48.3883L150.782 51.8446V52.7087L148.621 53.5728L145.597 55.7329L145.165 57.4611V85.9757L145.597 90.7281L146.029 91.5922L148.189 91.1601L153.374 88.1359L158.126 85.1116L165.039 81.6553L172.816 77.3349L176.272 74.7427L176.704 73.4465L177.136 38.0194L174.976 37.5873Z" fill="#C6F432"/>
</svg>
