<svg width="274" height="274" viewBox="0 0 274 274" fill="none" xmlns="http://www.w3.org/2000/svg">
<path d="M137 274C209.412 274 268.113 212.663 268.113 137C268.113 61.337 209.412 0 137 0C64.5881 0 5.88672 61.337 5.88672 137C5.88672 212.663 64.5881 274 137 274Z" fill="#171717"/>
<path d="M137 259.551C208.673 259.551 266.775 201.448 266.775 129.775C266.775 58.1024 208.673 0 137 0C65.327 0 7.22461 58.1024 7.22461 129.775C7.22461 201.448 65.327 259.551 137 259.551Z" fill="#C6F432"/>
<path opacity="0.5" d="M188.803 10.7566L17.9813 181.525C12.2551 168.414 8.66956 154.178 7.59924 139.248L146.472 0.321045C161.403 1.44487 175.638 5.03042 188.803 10.7566Z" fill="white"/>
<path opacity="0.5" d="M250.079 66.0918L73.3164 242.854C62.2922 236.646 52.3383 228.886 43.6152 219.842L227.12 36.3906C236.111 45.0602 243.871 55.0676 250.079 66.0918Z" fill="white"/>
<path opacity="0.5" d="M221.822 31.5207L38.7989 214.544C35.9625 211.226 33.2333 207.748 30.718 204.162L211.44 23.4398C215.026 25.9551 218.504 28.6844 221.822 31.5207Z" fill="white"/>
<path opacity="0.5" d="M262.708 97.3985L104.623 255.484C99.8602 254.253 95.2043 252.754 90.6555 251.042L258.266 83.4309C259.979 87.9797 261.477 92.6356 262.708 97.3985Z" fill="white"/>
<path opacity="0.5" d="M266.775 129.775C266.775 130.685 266.775 131.541 266.722 132.451C265.33 62.0246 207.801 5.35156 137 5.35156C66.1988 5.35156 8.66953 62.0246 7.27813 132.451C7.27813 131.541 7.22461 130.685 7.22461 129.775C7.22461 58.118 65.3426 0 137 0C208.657 0 266.775 58.118 266.775 129.775Z" fill="white"/>
<path opacity="0.5" d="M242.426 135.395C242.426 191.532 196.884 237.074 140.746 237.074C109.225 237.074 81.0227 222.679 62.3457 200.148C80.9156 220.217 107.459 232.793 137 232.793C193.138 232.793 238.68 187.251 238.68 131.113C238.68 106.496 229.957 83.966 215.4 66.3594C232.151 84.5012 242.426 108.744 242.426 135.395Z" fill="white"/>
<path d="M137 232.793C193.156 232.793 238.68 187.269 238.68 131.113C238.68 74.9571 193.156 29.4336 137 29.4336C80.8439 29.4336 35.3203 74.9571 35.3203 131.113C35.3203 187.269 80.8439 232.793 137 232.793Z" fill="#171717"/>
<path d="M214.062 64.7539C196.242 49.3949 173.07 40.1367 147.703 40.1367C91.5652 40.1367 46.0234 85.6785 46.0234 141.816C46.0234 167.183 55.2816 190.355 70.6406 208.176C49.0203 189.499 35.3203 161.938 35.3203 131.113C35.3203 74.9754 80.8621 29.4336 137 29.4336C167.771 29.4336 195.386 43.1336 214.062 64.7539Z" fill="#171717"/>
<path opacity="0.25" d="M221.822 74.9754C155.998 98.0941 103.125 148.88 77.223 213.367C74.9754 211.708 72.7812 209.995 70.6406 208.122C55.2816 190.302 46.0234 167.129 46.0234 141.816C46.0234 85.6785 91.5652 40.1367 147.703 40.1367C173.07 40.1367 196.242 49.3949 214.009 64.7539C216.845 68.0184 219.414 71.4434 221.822 74.9754Z" fill="white"/>
<path d="M122.203 105.75H126.827L129.833 107.138L135.613 110.375L139.081 112.456L143.936 115.23L149.485 118.467L155.265 121.704L160.814 124.941L166.826 128.409L171.681 131.646L175.149 134.652L177.924 137.888L180.236 141.357L182.086 145.056L183.704 149.911L184.398 152.917L184.629 154.767V163.321L183.935 167.252L183.01 170.72L181.161 174.882L179.08 178.581L176.768 181.587L174.225 184.361L171.681 186.442L169.138 188.292L164.976 190.604L161.508 191.991L157.115 193.147L152.26 193.841H147.173L142.549 193.147L139.081 192.222L135.613 190.835L131.913 188.985L126.364 185.749L119.891 182.049L115.498 179.506L109.949 176.269L103.475 172.57L97.9258 169.333L93.3016 166.789L93.5328 166.096L97.2322 164.015L102.781 160.778L107.868 157.772L111.336 155.923L112.261 156.154L115.035 157.541L137 170.258L142.549 173.495L146.248 174.882L151.104 175.344L154.572 174.651L158.271 173.032L160.814 171.182L162.433 169.564L164.514 166.327L165.439 164.015L165.901 162.165V155.691L164.976 152.917L163.358 149.911L161.508 147.599L159.196 145.75L155.034 143.206L149.485 139.969L144.167 136.964L138.618 133.727L132.145 130.027L126.596 126.79L120.122 123.091L118.041 121.473L116.422 119.623L115.266 116.848V112.687L116.191 110.375L117.579 108.525L119.428 106.907L121.278 105.982L122.203 105.75Z" fill="#C6F432"/>
<path d="M120.584 80.0864H128.445L134.226 81.2425L139.081 83.0921L143.936 85.6354L147.867 87.9475L158.271 93.9589L158.965 94.6525L159.196 105.288V115.693L157.809 115.23L152.029 111.993L148.098 109.681L141.624 105.982L135.613 102.514L131.913 100.433L129.37 99.2767L126.596 98.5831H122.434L118.966 99.5079L115.266 101.358L112.492 103.67L110.642 106.213L109.255 109.219L108.33 113.149V117.08L109.255 120.317L111.105 124.016L113.648 126.79L115.729 128.409L121.278 131.646L127.289 135.114L131.22 137.426L137.694 141.125L149.716 148.062L155.497 151.53L156.884 152.686L158.502 154.998L158.965 156.616L159.196 160.316L158.502 163.09L156.884 165.402L155.265 166.79L152.953 167.946L150.873 168.408H149.023L145.786 167.483L137 162.397L131.451 159.16L125.44 155.692L118.966 151.992L112.723 148.293L108.561 145.981L104.862 143.669L102.088 141.588L99.7755 139.507L97.6946 137.426L95.3825 134.42L93.3016 130.952L92.1456 128.409L90.5271 123.554L89.6023 118.698L89.3711 116.386V113.612L89.8335 109.912L90.7583 105.519L91.9144 101.82L93.3016 98.8143L94.9201 96.0398L97.2322 92.8029L100.469 89.3348L103.475 86.7915L106.943 84.4794L111.336 82.3985L115.498 81.0113L120.584 80.0864Z" fill="#C6F432"/>
<path d="M89.6023 172.801L90.9896 173.263L102.319 179.737L108.33 183.205L113.879 186.442L119.891 189.91L125.44 193.147L130.295 195.922L134.688 198.003L138.85 199.39L144.167 200.546L146.248 200.777L146.711 201.24L144.861 202.396L140.931 204.476L137.231 206.326L131.682 207.945L126.364 208.638H121.971L117.579 208.176L115.266 207.482L112.261 206.557L108.33 204.939L102.319 201.471L91.9144 195.459L89.6023 194.072L89.3711 192.685L89.6023 172.801Z" fill="#C6F432"/>
<path d="M146.248 65.2891H153.185L158.965 66.2139L163.127 67.6011L168.213 70.1444L172.144 72.4565L177.924 75.6934L180.698 77.5431V78.2367L175.149 81.4736L168.676 85.173L164.745 87.4851L163.127 88.4099L161.971 88.1787L156.422 84.9418L150.641 81.7049L146.248 79.1616L143.936 77.7743L140.237 76.1559L135.844 74.5374L132.145 73.6126L127.983 73.1501L128.445 72.2253L133.069 69.4508L137.462 67.3699L142.087 65.9827L146.248 65.2891Z" fill="#C6F432"/>
<path d="M184.166 84.2482L184.629 84.4794V105.288L183.473 106.213L171.45 113.149L167.751 115.23L166.826 115.924H166.363L166.132 114.536V95.115L167.288 93.9589L171.912 91.4156L176.999 88.4099L182.317 85.4042L184.166 84.2482Z" fill="#C6F432"/>
<path d="M122.203 105.75H126.827L129.833 107.138L135.613 110.375L139.081 112.456L143.936 115.23L149.485 118.467L155.265 121.704L160.814 124.941L166.826 128.409L171.681 131.646L175.149 134.652L177.924 137.888L180.236 141.357L182.086 145.056L183.704 149.911L184.398 152.917L184.629 154.767V163.321L183.935 167.252L183.01 170.72L181.161 174.882L179.08 178.581L176.768 181.587L174.225 184.361L171.681 186.442L169.138 188.292L164.976 190.604L161.508 191.991L157.115 193.147L152.26 193.841H147.173L142.549 193.147L139.081 192.222L135.613 190.835L131.913 188.985L126.364 185.749L119.891 182.049L115.498 179.506L109.949 176.269L103.475 172.57L97.9258 169.333L93.3016 166.789L93.5328 166.096L97.2322 164.015L102.781 160.778L107.868 157.772L111.336 155.923L112.261 156.154L115.035 157.541L137 170.258L142.549 173.495L146.248 174.882L151.104 175.344L154.572 174.651L158.271 173.032L160.814 171.182L162.433 169.564L164.514 166.327L165.439 164.015L165.901 162.165V155.691L164.976 152.917L163.358 149.911L161.508 147.599L159.196 145.75L155.034 143.206L149.485 139.969L144.167 136.964L138.618 133.727L132.145 130.027L126.596 126.79L120.122 123.091L118.041 121.473L116.422 119.623L115.266 116.848V112.687L116.191 110.375L117.579 108.525L119.428 106.907L121.278 105.982L122.203 105.75ZM124.284 106.444L121.509 106.907L119.197 108.063L117.81 109.681L117.347 110.375V111.068L116.654 111.299L116.191 112.687V117.08L116.885 118.467L117.81 119.854L118.041 120.779L120.353 122.629L122.665 123.785L124.977 125.403L127.752 126.559L128.677 127.484L131.22 128.871L132.376 129.565L134.457 130.721H134.919V131.183L136.769 132.108L143.474 136.039L144.63 136.732L148.329 138.813L149.716 139.738L151.335 140.432L152.722 141.357L154.341 142.05L156.19 143.206L157.346 143.9L159.89 145.518L162.895 148.062L165.207 151.299L166.132 153.148L166.595 155.46L166.826 155.691V161.934L166.132 164.709L164.514 167.714L163.127 169.795L161.739 171.414L159.427 173.263L156.19 174.882L153.185 175.807L152.26 176.038H147.867L145.092 175.344L142.549 174.419L141.855 174.188V173.726L139.081 172.338L138.387 171.645L136.306 170.489L133.763 169.102L130.757 167.252L128.445 165.865L123.128 163.09L121.278 161.934L118.041 160.084L114.342 158.004L112.954 157.079L111.336 156.848L107.637 158.697L105.093 160.316L102.55 161.703L100.7 162.859L97.4634 164.477L95.1513 165.865V166.789L97.001 168.177L99.0818 169.333L104.862 172.801L106.018 173.263L108.33 174.651L110.873 176.038L112.954 177.425L115.96 179.275L118.503 180.662L122.203 182.743L123.821 183.668L129.37 186.905L130.757 187.829L133.069 188.985L135.15 190.142L139.081 191.529L140.237 191.991L143.474 192.454L145.555 192.685L148.792 192.916H151.335L153.185 192.685H155.497L157.809 192.222L160.583 191.76L163.82 190.604L165.67 189.679L167.751 188.292L170.525 186.673L172.606 184.824L175.381 182.049V181.587L176.305 181.124L177.924 179.044L179.774 175.807L181.623 172.107L182.779 168.87L183.935 164.246V155.923L183.704 152.686L183.01 150.605L182.086 147.599L180.467 143.437L179.08 141.357L177.693 138.813L174.456 134.883L173.068 133.727H172.606V133.264L170.294 131.415L168.907 130.49H168.444V130.027L165.901 128.64L163.589 127.253L163.127 126.79H162.433V126.328L158.734 124.478L156.653 123.322L154.109 121.935L151.335 120.317L148.329 118.467L146.017 117.08L142.087 114.999L140.006 113.612L137.231 112.224L134.226 110.375L132.145 108.987L128.445 107.138L127.289 106.675H125.44L124.284 106.444Z" fill="#C6F432"/>
<path d="M120.584 80.0864H128.445L134.226 81.2425L139.081 83.0921L143.936 85.6354L147.867 87.9475L158.271 93.9589L158.965 94.6525L159.196 105.288V115.693L157.809 115.23L152.029 111.993L148.098 109.681L141.624 105.982L135.613 102.514L131.913 100.433L129.37 99.2767L126.596 98.5831H122.434L118.966 99.5079L115.266 101.358L112.492 103.67L110.642 106.213L109.255 109.219L108.33 113.149V117.08L109.255 120.317L111.105 124.016L113.648 126.79L115.729 128.409L121.278 131.646L127.289 135.114L131.22 137.426L137.694 141.125L149.716 148.062L155.497 151.53L156.884 152.686L158.502 154.998L158.965 156.616L159.196 160.316L158.502 163.09L156.884 165.402L155.265 166.79L152.953 167.946L150.873 168.408H149.023L145.786 167.483L137 162.397L131.451 159.16L125.44 155.692L118.966 151.992L112.723 148.293L108.561 145.981L104.862 143.669L102.088 141.588L99.7755 139.507L97.6946 137.426L95.3825 134.42L93.3016 130.952L92.1456 128.409L90.5271 123.554L89.6023 118.698L89.3711 116.386V113.612L89.8335 109.912L90.7583 105.519L91.9144 101.82L93.3016 98.8143L94.9201 96.0398L97.2322 92.8029L100.469 89.3348L103.475 86.7915L106.943 84.4794L111.336 82.3985L115.498 81.0113L120.584 80.0864ZM123.359 80.7801L118.966 81.2425L116.885 81.4737L112.954 82.6297L111.567 83.0921L109.255 84.2482L105.787 86.0978L104.631 86.7915V87.2539L103.475 87.7163L101.163 90.0284L100.469 90.4908V91.1844L99.5443 91.6468L98.3882 93.0341L97.2322 94.1901L95.3825 96.7334L92.608 102.282L91.6832 104.826L90.2959 111.762V117.773L91.6832 124.247L92.8392 127.715L93.9953 130.027L94.2265 130.952H94.6889L95.1513 132.339L96.3073 134.189L97.4634 135.808L97.6946 136.501L98.8506 137.657L100.469 139.507L102.319 141.125L105.324 143.437L109.717 145.981L111.567 147.137L112.954 147.83L115.729 149.449L118.041 150.836L120.122 151.992L122.434 153.379H123.128V153.842L125.902 155.46L128.214 156.616L131.451 158.697L134.688 160.316L136.769 161.703L140.931 164.015L145.324 166.327L147.636 167.252L149.485 167.483H151.566L153.878 166.79L155.959 165.402L157.346 163.553L158.04 162.165L158.271 159.16L157.809 155.692L157.115 154.304L155.497 152.223L152.953 150.605L151.104 149.449L149.485 148.755L147.173 147.137L143.936 145.518L141.162 143.9L137.694 142.05L136.538 141.125L133.994 139.738L131.451 138.12L129.833 137.195L127.058 135.576L124.515 134.189L122.203 132.802L119.659 131.415L116.422 129.565L113.879 127.715H113.417V127.253H112.954V126.79L112.03 126.328L111.336 125.634L111.105 124.941L109.949 123.785L108.561 120.779L107.868 118.698L107.637 117.311V112.687L108.793 108.294L109.717 106.444L112.261 103.207L115.035 100.664L118.735 98.8143L122.203 97.8895H126.596L130.295 98.8143L133.994 100.664L134.919 101.589L136.538 102.282L138.618 103.438L139.543 104.363L141.624 105.288L144.167 106.907L145.324 107.369L146.017 107.6V108.063L149.716 109.912L152.26 111.3L154.109 112.456L156.19 113.612L157.346 114.305L158.04 114.074L158.271 113.612V95.3462L157.346 93.9589L155.497 93.0341H154.803V92.5717L149.948 89.7972H149.485V89.3348L147.636 88.4099L146.711 87.7163L143.705 86.329L141.162 84.9418L139.312 84.017L134.919 82.1673L132.376 81.4737H130.295L129.601 81.7049V81.2425L124.284 80.7801H123.359Z" fill="#C6F432"/>
<path d="M89.6023 172.801L90.9896 173.263L102.319 179.737L108.33 183.205L113.879 186.442L119.891 189.91L125.44 193.147L130.295 195.922L134.688 198.003L138.85 199.39L144.167 200.546L146.248 200.777L146.711 201.24L144.861 202.396L140.931 204.476L137.231 206.326L131.682 207.945L126.364 208.638H121.971L117.579 208.176L115.266 207.482L112.261 206.557L108.33 204.939L102.319 201.471L91.9144 195.459L89.6023 194.072L89.3711 192.685L89.6023 172.801ZM90.7583 174.419L90.2959 175.807V193.147L91.452 194.534L93.7641 195.922L97.001 197.771L100.007 199.39L101.394 199.852V200.315L103.937 201.702L105.093 202.396L108.793 204.476L111.105 205.401L111.798 205.864L113.417 206.326L114.11 206.789L119.428 207.482V207.713L130.757 207.482L132.145 207.02L134.919 206.557L137.694 205.401L139.774 204.245H140.237V203.783L141.393 203.552L142.78 202.627V201.702L141.855 200.777L136.075 199.159L132.607 197.771L129.833 196.384L129.139 195.691L127.752 194.997L123.359 192.685L122.665 192.454V191.991L120.815 191.066L118.503 189.679L115.729 188.292L113.417 186.673L112.03 185.98L109.949 184.593L107.637 183.436L105.093 182.049L101.163 179.737L98.6194 178.35L95.3825 176.5L93.3016 175.344L90.7583 174.419Z" fill="#C6F432"/>
<path d="M146.248 65.2891H153.185L158.965 66.2139L163.127 67.6011L168.213 70.1444L172.144 72.4565L177.924 75.6934L180.698 77.5431V78.2367L175.149 81.4736L168.676 85.173L164.745 87.4851L163.127 88.4099L161.971 88.1787L156.422 84.9418L150.641 81.7049L146.248 79.1616L143.936 77.7743L140.237 76.1559L135.844 74.5374L132.145 73.6126L127.983 73.1501L128.445 72.2253L133.069 69.4508L137.462 67.3699L142.087 65.9827L146.248 65.2891ZM146.711 65.9827L142.318 66.6763L138.85 67.6011L134.919 68.9884L132.145 70.8381L130.989 71.9941L131.22 72.9189L133.532 73.3814L137.231 74.3062L139.081 74.9998L140.699 75.6934L141.855 76.1559L144.167 77.3119H145.092L145.324 78.0055L148.098 79.624L150.873 81.0112L153.416 82.6297L156.422 84.2481L157.115 84.4793V84.9418L159.89 86.0978L161.739 87.2538H163.82L167.057 85.6354L168.676 84.7106L177.693 79.1616L178.849 78.4679L179.311 78.0055V77.0807L176.768 75.6934L173.069 73.6126L167.982 70.6069L166.363 69.682L164.051 68.526L160.814 67.3699L158.04 66.6763L152.26 65.9827H146.711Z" fill="#C6F432"/>
<path d="M184.166 84.2482L184.629 84.4794V105.288L183.473 106.213L171.45 113.149L167.751 115.23L166.826 115.924H166.363L166.132 114.536V95.115L167.288 93.9589L171.912 91.4156L176.999 88.4099L182.317 85.4042L184.166 84.2482ZM183.01 85.4042L180.236 87.2539L179.542 87.9475L175.843 89.7972L174.687 90.4908V90.9532L173.762 91.1844L170.063 93.0341V93.4965L168.907 93.9589L167.288 95.115L167.057 96.0398V111.3L167.288 113.843L167.519 114.305L168.675 114.074L171.45 112.456L173.993 110.837L177.693 108.987L181.854 106.675L183.704 105.288L183.935 104.594L184.166 85.6354L183.01 85.4042Z" fill="#C6F432"/>
</svg>
