<svg width="707" height="607" viewBox="0 0 707 607" fill="none" xmlns="http://www.w3.org/2000/svg">
<g opacity="0.3">
<path d="M274.906 565.02C265.481 567.545 256.327 569.766 247.492 571.665C198.986 582.1 161.637 582.748 136.483 573.592C110.749 564.227 98.5136 544.69 100.112 515.518C104.97 426.96 117.622 369.489 125.993 331.463C129.761 314.347 132.738 300.826 133.586 290.6C134.995 273.58 153.418 246.55 181.663 220.055C212.059 191.544 246.976 169.855 277.464 160.55C319.512 147.717 362.35 123.153 390.88 104.804C424.115 83.4304 457.606 57.7359 480.466 36.0699C495.223 22.0828 512.818 17.0271 531.345 21.4479C563.423 29.1049 594.145 64.1227 611.52 112.832C619.754 135.919 628.27 159.795 635.024 183.226C642.494 209.132 646.935 231.695 648.605 252.202C650.596 276.688 648.796 298.967 643.104 320.307C636.747 344.134 625.714 366.28 609.374 388.012C581.467 425.128 491.904 480.991 391.577 523.86C350.534 541.395 310.753 555.411 274.905 565.017L274.906 565.02ZM505.657 22.6698C496.943 25.0049 488.708 29.7591 481.215 36.8622C458.307 58.5746 424.757 84.3149 391.47 105.721C362.882 124.104 319.95 148.724 277.781 161.593C247.449 170.852 212.684 192.448 182.405 220.853C154.349 247.17 136.057 273.932 134.669 290.695C133.815 300.998 130.831 314.547 127.055 331.703C118.69 369.697 106.053 427.112 101.198 515.583C99.6285 544.218 111.624 563.393 136.857 572.578C161.814 581.659 198.96 580.997 247.265 570.609C289.628 561.499 339.382 544.99 391.15 522.869C491.323 480.068 580.703 424.348 608.507 387.368C624.762 365.748 635.735 343.727 642.056 320.034C647.717 298.814 649.508 276.657 647.525 252.296C643.809 206.592 626.873 159.117 610.499 113.204C593.249 64.835 562.823 30.0825 531.094 22.5118C522.333 20.4196 513.785 20.4957 505.658 22.6733L505.657 22.6698Z" fill="white"/>
<path d="M276.011 545.803C268.556 547.801 261.295 549.586 254.251 551.147C209.832 560.992 175.639 561.833 152.616 553.645C129.344 545.367 118.172 527.938 119.41 501.842C122.569 422.993 133.291 368.355 140.384 332.203C143.714 315.231 146.343 301.826 147.145 291.484C148.448 274.767 165.329 248.967 191.203 224.148C218.909 197.572 251.316 177.098 280.117 167.973C318.852 155.945 358.374 133.572 384.705 116.926C415.64 97.3672 445.795 74.7959 467.437 54.9924C481.097 42.4979 497.316 38.1257 514.346 42.3482C543.907 49.6758 572.158 81.8975 588.074 126.446C603.13 168.461 618.7 211.907 622.127 254.725C623.933 277.279 622.267 297.817 617.035 317.514C611.2 339.484 601.091 359.914 586.142 379.97C560.587 414.485 478.402 466.509 386.287 506.484C347.42 523.35 309.758 536.765 276.008 545.808L276.011 545.803ZM489.964 43.3741C482.201 45.4542 474.851 49.5964 468.129 55.7435C446.445 75.5845 416.238 98.1998 385.254 117.787C358.868 134.466 319.265 156.883 280.426 168.946C251.771 178.025 219.509 198.412 191.914 224.883C166.213 249.535 149.452 275.086 148.167 291.562C147.362 301.965 144.725 315.395 141.392 332.398C134.303 368.522 123.594 423.108 120.438 501.885C119.224 527.484 130.167 544.574 152.966 552.683C175.802 560.804 209.807 559.95 254.036 550.148C292.903 541.536 338.496 526.108 385.889 505.542C477.856 465.632 559.867 413.745 585.329 379.356C600.205 359.406 610.255 339.09 616.056 317.248C621.259 297.664 622.914 277.241 621.116 254.801C617.699 212.115 602.153 168.734 587.117 126.781C571.314 82.5509 543.338 50.5774 514.103 43.3311C505.794 41.2717 497.673 41.3046 489.963 43.3706L489.964 43.3741Z" fill="white"/>
<path d="M277.189 526.606C271.668 528.085 266.273 529.429 261.006 530.638C220.674 539.898 189.634 540.928 168.748 533.707C147.938 526.515 137.833 511.191 138.715 488.161C140.199 418.513 148.71 368.651 154.926 332.248C157.747 315.727 159.972 302.677 160.713 292.359C161.928 275.692 176.896 251.72 200.753 228.232C225.779 203.592 255.677 184.333 282.779 175.389C346.981 155.047 420.595 103.555 454.414 73.9101C466.978 62.9081 481.828 59.2177 497.364 63.2408C524.403 70.24 550.179 99.671 564.635 140.048C577.713 176.331 592.531 217.458 595.657 257.24C597.276 277.861 595.747 296.659 590.977 314.71C585.662 334.826 576.484 353.537 562.92 371.918C551.274 387.93 527.243 407.831 493.428 429.461C460.949 450.239 421.018 471.421 381.002 489.108C344.335 505.313 308.804 518.134 277.192 526.605L277.189 526.606ZM474.244 64.067C467.44 65.8903 460.981 69.423 455.041 74.6263C421.164 104.324 347.407 155.91 283.071 176.296C256.107 185.196 226.344 204.373 201.419 228.911C177.725 252.239 162.861 275.985 161.661 292.428C160.918 302.791 158.686 315.861 155.861 332.41C149.653 368.785 141.15 418.606 139.664 488.191C138.801 510.759 148.69 525.767 169.058 532.808C189.774 539.969 220.635 538.927 260.79 529.707C296.159 521.586 337.597 507.246 380.61 488.235C420.586 470.566 460.467 449.409 492.909 428.656C526.621 407.091 550.563 387.278 562.142 371.355C575.639 353.071 584.766 334.462 590.047 314.469C594.788 296.522 596.311 277.828 594.699 257.316C591.585 217.662 576.787 176.598 563.728 140.373C549.377 100.29 523.854 71.0877 497.117 64.1651C489.24 62.1246 481.542 62.1116 474.241 64.068L474.244 64.067Z" fill="white"/>
<path d="M278.456 507.432C274.821 508.406 271.254 509.313 267.744 510.153C231.499 518.823 203.616 520.049 184.865 513.796C166.521 507.678 157.488 494.453 158.014 474.489C157.817 413.399 164.633 365.861 169.612 331.153C171.757 316.195 173.61 303.279 174.275 293.24C175.385 276.866 188.852 254.091 210.293 232.322C232.655 209.621 260.043 191.571 285.434 182.808C310.831 174.568 340.887 160.168 372.364 141.161C397.629 125.905 422.785 108.288 441.388 92.8286C452.854 83.3123 466.342 80.3052 480.391 84.1386C504.901 90.8226 528.196 117.46 541.187 153.659C554.961 191.614 566.573 225.799 569.179 259.764C570.614 278.453 569.216 295.514 564.909 311.92C560.115 330.177 551.865 347.175 539.686 363.881C529.148 378.682 507.456 397.026 476.955 416.929C447.774 435.969 411.813 455.443 375.695 471.764C341.254 487.324 307.887 499.557 278.451 507.445L278.456 507.432ZM458.494 84.742C452.655 86.3066 447.1 89.2375 441.953 93.509C423.32 108.996 398.122 126.642 372.822 141.918C341.287 160.96 311.168 175.392 285.715 183.647C260.458 192.366 233.195 210.334 210.928 232.942C189.631 254.564 176.258 277.131 175.165 293.298C174.497 303.371 172.641 316.303 170.493 331.277C165.518 365.957 158.706 413.456 158.905 474.498C158.389 494.039 167.217 506.974 185.148 512.952C203.743 519.153 231.463 517.918 267.543 509.289C299.421 501.657 336.695 488.403 375.336 470.942C411.414 454.64 447.333 435.192 476.475 416.174C506.884 396.333 528.492 378.067 538.97 363.349C551.086 346.731 559.288 329.832 564.055 311.685C568.335 295.376 569.725 278.41 568.299 259.823C565.701 225.973 554.109 191.85 540.358 153.952C527.461 118.021 504.396 91.5949 480.161 84.987C472.706 82.9534 465.406 82.8863 458.5 84.7367L458.494 84.742Z" fill="white"/>
<path d="M279.839 488.303C278.031 488.787 276.243 489.252 274.468 489.697C242.311 497.782 217.58 499.201 200.962 493.912C185.086 488.86 177.127 477.726 177.312 460.814C175.347 407.48 180.598 361.632 184.433 328.156C185.954 314.883 187.269 303.418 187.834 294.122C188.856 277.786 200.521 256.752 219.833 236.412C239.552 215.644 264.427 198.811 288.087 190.231C335.312 174.471 393.902 138.499 428.358 111.748C438.738 103.707 450.869 101.385 463.437 105.035C485.405 111.415 506.214 135.257 517.741 167.262C529.575 199.6 540.386 231.201 542.702 262.276C543.951 279.029 542.688 294.354 538.844 309.115C534.573 325.515 527.249 340.793 516.459 355.826C507.029 369.416 487.671 386.214 460.483 404.394C434.602 421.699 402.605 439.466 370.388 454.423C338.21 469.358 307.043 481.014 279.84 488.306L279.839 488.303ZM442.7 105.395C437.844 106.696 433.199 109.035 428.864 112.392C394.355 139.183 335.665 175.215 288.36 191C264.828 199.535 240.067 216.293 220.434 236.974C201.25 257.179 189.67 278.025 188.661 294.17C188.093 303.486 186.778 314.962 185.256 328.246C181.422 361.696 176.176 407.509 178.138 460.802C177.958 477.331 185.722 488.199 201.217 493.129C217.687 498.37 242.267 496.947 274.273 488.899C302.656 481.755 335.777 469.583 370.044 453.672C402.222 438.734 434.18 420.991 460.029 403.706C487.134 385.582 506.415 368.862 515.791 355.35C526.528 340.398 533.808 325.207 538.053 308.907C541.876 294.234 543.129 278.999 541.889 262.337C539.582 231.364 528.787 199.823 516.976 167.541C505.537 135.779 484.941 112.131 463.217 105.825C456.158 103.775 449.241 103.65 442.706 105.401L442.7 105.395Z" fill="white"/>
<path d="M281.382 469.224L281.183 469.278C253.114 476.78 231.536 478.392 217.052 474.072C203.641 470.075 196.765 461.011 196.617 447.136C192.639 400.648 196.505 355.227 199.329 322.063C200.213 311.676 200.978 302.708 201.405 294.996C202.324 278.932 212.525 259.066 229.383 240.496C246.484 221.658 268.853 206.036 290.751 197.643C311.1 190.617 334.402 179.765 360.026 165.391C379.3 154.577 399.459 141.918 415.34 130.657C424.64 124.085 435.421 122.451 446.527 125.934C465.947 132.023 484.253 153.07 494.302 180.863C504.292 207.873 514.21 236.604 516.232 264.791C517.293 279.612 516.166 293.192 512.784 306.315C509.034 320.856 502.639 334.42 493.232 347.776C476.734 372.322 425.226 408.229 365.068 437.116C335.209 451.456 306.277 462.554 281.382 469.224ZM426.834 126.015C422.975 127.049 419.265 128.807 415.772 131.275C399.872 142.549 379.684 155.227 360.39 166.05C334.731 180.445 311.384 191.313 291.005 198.35C269.226 206.7 246.964 222.245 229.938 241.002C213.193 259.449 203.068 279.145 202.155 295.038C201.727 302.759 200.963 311.734 200.077 322.125C197.253 355.262 193.391 400.644 197.368 447.096C197.515 460.63 204.209 469.451 217.266 473.344C231.614 477.622 253.054 476.009 280.986 468.543L281.186 468.49C306.035 461.832 334.919 450.75 364.738 436.429C424.786 407.593 476.169 371.792 492.606 347.34C501.963 334.054 508.321 320.572 512.049 306.119C515.409 293.08 516.53 279.577 515.476 264.839C513.462 236.752 503.56 208.081 493.59 181.117C483.617 153.54 465.497 132.668 446.299 126.651C439.606 124.552 433.028 124.351 426.84 126.009L426.834 126.015Z" fill="white"/>
<path d="M283.038 450.269C261.404 456.066 244.625 457.426 233.118 454.309C222.177 451.343 216.39 444.341 215.915 433.487C209.329 392.968 212.096 345.613 214.116 311.031C214.432 305.604 214.731 300.481 214.964 295.877C215.797 279.829 224.307 261.615 238.923 244.586C253.663 227.418 273.011 213.381 293.403 205.062C307.665 199.922 346.801 184.239 402.314 149.575C410.546 144.462 420.001 143.517 429.658 146.853C446.499 152.67 462.285 170.915 470.853 194.467C479.095 216.453 488.032 242.026 489.752 267.308C491.572 294.027 485.11 317.713 469.999 339.727C462.776 350.916 448.082 364.632 427.517 379.388C407.93 393.441 384.491 407.436 359.735 419.857C334.169 432.684 309.321 442.736 287.878 448.923C286.239 449.396 284.623 449.844 283.034 450.27L283.038 450.269ZM410.871 146.582C408.037 147.341 405.294 148.537 402.68 150.159C393.798 155.705 375.687 166.713 354.175 178.116C331.59 190.091 311.23 199.371 293.654 205.703C273.373 213.977 254.119 227.944 239.451 245.032C224.935 261.945 216.484 280.012 215.659 295.909C215.426 300.512 215.127 305.638 214.813 311.069C212.793 345.625 210.028 392.946 216.607 433.395L216.61 433.436C217.062 443.966 222.678 450.763 233.303 453.641C245.359 456.907 264.168 455.048 287.692 448.258C309.097 442.08 333.901 432.047 359.431 419.238C384.154 406.833 407.563 392.857 427.123 378.827C447.619 364.123 462.247 350.469 469.432 339.347C484.457 317.461 490.877 293.914 489.072 267.359C487.358 242.169 478.439 216.651 470.214 194.713C461.714 171.345 446.092 153.262 429.44 147.511C423.06 145.305 416.767 145.009 410.88 146.587L410.871 146.582Z" fill="white"/>
<path d="M285.405 431.355C270.044 435.472 257.633 436.62 249.172 434.669C240.675 432.708 235.982 427.717 235.218 419.829C224.596 384.708 227.352 323.077 228.525 296.755C230.051 263.867 257.822 229.211 296.058 212.481C326.878 200.761 362.034 182.581 383.04 171.723C385.269 170.571 387.364 169.489 389.298 168.491C396.484 164.816 404.644 164.582 412.883 167.806C427.113 173.375 440.339 188.803 447.408 208.073C454.857 227.578 461.934 248.558 463.276 269.827C464.707 292.522 459.311 312.753 446.77 331.68C434.729 351.335 398.474 379.198 354.407 402.657C333.217 413.936 312.529 422.926 294.578 428.658C291.417 429.666 288.356 430.569 285.403 431.36L285.405 431.355ZM394.737 167.06C392.971 167.533 391.251 168.196 389.582 169.048C387.647 170.042 385.556 171.123 383.327 172.279C362.312 183.144 327.137 201.336 296.296 213.061C258.282 229.695 230.667 264.125 229.152 296.785C227.976 323.082 225.223 384.667 235.827 419.681L235.843 419.74C236.566 427.35 241.097 432.168 249.313 434.062C259.293 436.363 274.882 434.287 294.392 428.063C312.309 422.345 332.965 413.371 354.117 402.109C398.089 378.698 434.251 350.924 446.247 331.349C474.094 289.322 461.802 247.519 446.827 208.3C439.816 189.187 426.724 173.898 412.658 168.395C406.505 165.986 400.407 165.548 394.743 167.066L394.737 167.06Z" fill="white"/>
<path d="M288.157 412.77C278.767 415.286 270.939 416.184 265.263 415.263C259.15 414.267 255.539 411.214 254.53 406.191C248.924 397.36 245.083 380.769 243.106 356.879C241.666 339.473 241.295 317.88 242.091 297.634C243.416 265.145 264.584 236.088 298.718 219.902C310.872 214.94 323.454 209.52 335.623 204.277C351.362 197.497 366.228 191.097 376.285 187.406C384.761 184.333 394.456 186.411 403.582 193.253C412.234 199.739 419.659 210.098 423.965 221.675C434.303 248.042 436.255 262.602 436.803 272.343C437.851 291.004 433.513 307.782 423.544 323.63C413.674 340.934 385.167 364.66 349.148 385.536C326.14 398.872 304.72 408.336 288.158 412.773L288.157 412.77ZM378.318 187.352C377.699 187.518 377.087 187.712 376.479 187.931C366.435 191.615 351.579 198.012 335.847 204.79C323.675 210.034 311.088 215.452 298.944 220.411C265.017 236.5 243.965 265.377 242.651 297.653C241.857 317.879 242.226 339.447 243.663 356.831C245.634 380.671 249.461 397.194 255.031 405.933L255.058 405.978L255.071 406.027C256.013 410.829 259.469 413.75 265.351 414.711C280.917 417.25 312.919 405.884 348.864 385.05C384.802 364.222 413.233 340.577 423.062 323.343C432.973 307.589 437.281 290.921 436.242 272.377C435.206 253.914 428.857 235.691 423.439 221.88C419.172 210.394 411.813 200.126 403.245 193.703C394.931 187.471 386.156 185.256 378.319 187.356L378.318 187.352Z" fill="white"/>
<path d="M291.703 394.81C287.82 395.851 284.447 396.376 281.71 396.334C277.706 396.268 275.071 395.011 273.879 392.592C265.396 389.061 260.933 370.558 258.681 355.632C256.143 338.797 255.011 317.446 255.651 298.508C256.222 282.211 260.113 268.588 267.546 256.855C275.139 244.874 286.203 235.214 301.372 227.317C324.729 216.795 349.028 208.557 363.285 206.325C370.235 205.268 377.976 207.877 385.08 213.665C391.725 219.082 397.353 226.959 400.516 235.279C409.426 257.102 417.455 285.945 400.313 315.576C392.682 330.419 371.739 350.159 344.298 368.362C324.245 381.666 304.993 391.249 291.699 394.811L291.703 394.81ZM351.202 209.492C337.264 213.226 319.161 219.845 301.592 227.76C286.514 235.606 275.514 245.211 267.969 257.116C260.582 268.773 256.715 282.315 256.149 298.52C254.947 333.914 259.739 386.366 274.155 392.166L274.243 392.202L274.285 392.288C275.368 394.579 277.869 395.771 281.718 395.834C293.739 396.029 318.197 385.081 344.029 367.943C371.402 349.785 392.286 330.117 399.884 315.332C416.923 285.878 408.928 257.172 400.06 235.454L400.058 235.447C396.924 227.205 391.349 219.4 384.767 214.038C377.773 208.336 370.171 205.769 363.361 206.803C359.86 207.352 355.751 208.265 351.2 209.485L351.202 209.492Z" fill="white"/>
<path d="M297.379 378.562C295.704 379.011 294.341 379.147 293.351 378.937C290.665 380.091 288.093 379.855 285.708 378.246C278.729 373.537 274.722 358.209 272.589 346.173C270.05 331.856 268.794 314.363 269.222 299.379C269.716 282.428 272.145 270.575 277.101 260.941C282.383 250.669 290.947 242.339 304.041 234.728C319.206 226.828 337.366 223.108 350.309 225.249C361.925 227.22 373.043 238.808 377.078 248.872C386.115 269.485 386.119 289.217 377.095 307.512C373.891 314.867 368.063 323.202 359.783 332.281C352.612 340.14 343.784 348.321 334.242 355.935C319.307 367.857 305.067 376.494 297.381 378.554L297.379 378.562ZM293.307 378.492L293.375 378.507C294.327 378.728 295.649 378.598 297.283 378.161C314.201 373.627 364.292 335.816 376.7 307.341C385.67 289.153 385.662 269.546 376.676 249.051L376.674 249.044C372.683 239.088 361.7 227.625 350.229 225.679C337.372 223.553 319.316 227.255 304.237 235.11C291.224 242.673 282.716 250.943 277.469 261.142C272.546 270.715 270.132 282.512 269.638 299.394C269.211 314.353 270.469 331.811 273.001 346.104C275.121 358.057 279.085 373.273 285.937 377.896C288.212 379.43 290.668 379.641 293.236 378.518L293.299 378.49L293.307 378.492Z" fill="white"/>
<path d="M305.821 369.848C304.145 370.298 302.511 370.203 300.928 369.556C296.959 367.941 291.314 361.972 286.945 342.727C284.017 329.826 282.46 313.953 282.778 300.265C283.153 284.088 283.601 273.642 286.638 265.051C289.78 256.162 295.588 249.529 306.693 242.162C312.811 238.102 319.334 236.935 326.074 238.692C340.649 242.497 351.674 258.68 353.623 262.482C357.262 269.584 358.262 278.297 356.591 288.38C355.153 297.061 351.745 306.774 346.459 317.261C336.906 336.212 322.77 354.431 312.728 365.162C310.364 367.687 308.054 369.254 305.822 369.852L305.821 369.848ZM314.381 239.008C311.828 239.692 309.331 240.841 306.892 242.461C295.862 249.781 290.091 256.359 286.978 265.17C283.961 273.714 283.513 284.13 283.14 300.273C282.56 325.23 288.608 364.146 301.064 369.224C304.6 370.666 308.434 369.216 312.459 364.915C322.484 354.204 336.595 336.018 346.131 317.098C351.399 306.646 354.797 296.965 356.227 288.321C357.884 278.315 356.897 269.678 353.296 262.648C351.363 258.876 340.422 242.813 325.977 239.044C322.023 238.013 318.143 238.004 314.375 239.013L314.381 239.008Z" fill="white"/>
</g>
</svg>
